<?xml version="1.0" encoding="utf-8"?>
<!-- Generator: Adobe Illustrator 27.5.0, SVG Export Plug-In . SVG Version: 6.00 Build 0)  -->
<svg version="1.1" id="Ñëîé_1" xmlns="http://www.w3.org/2000/svg" xmlns:xlink="http://www.w3.org/1999/xlink" x="0px" y="0px"
	 viewBox="0 0 450 450" style="enable-background:new 0 0 450 450;" xml:space="preserve">
<g>
	<g>
		<g>
			<defs>
				<rect id="SVGID_1_" x="224.998" y="300" width="225.002" height="150"/>
			</defs>
			<use xlink:href="#SVGID_1_"  style="overflow:visible;fill:#FF9A5E;"/>
			<clipPath id="SVGID_00000152969869883231392570000010384306440803241148_">
				<use xlink:href="#SVGID_1_"  style="overflow:visible;"/>
			</clipPath>
			<g style="clip-path:url(#SVGID_00000152969869883231392570000010384306440803241148_);">
				<rect x="325.215" y="314.637" style="fill:#FFD633;" width="3.422" height="49.188"/>
				<polygon style="fill:#B92431;" points="324.66,346.268 324.66,316.045 362.1,332.309 				"/>
			</g>
			<g style="clip-path:url(#SVGID_00000152969869883231392570000010384306440803241148_);">
				<g>
					<g>
						<polygon style="fill:#4F8587;" points="306.775,518.514 382.51,388.459 442.361,508.32 						"/>
					</g>
					<path style="fill:#FFFFFF;" d="M382.453,407.068c1-0.477,1.311-2.99,2.578-3.441c1.174-0.418,3.463,0.844,4.607,1.283
						c0.455,0.176,0.912,0.365,1.367,0.563l-8.496-17.014l-11.951,20.523c1.385-0.853,2.676-1.914,4.129-2.67
						c1.254-0.65,1.432-0.805,2.756-0.664C379.033,405.818,380.916,407.801,382.453,407.068z"/>
				</g>
				<g>
					<g>
						<polygon style="fill:#76C6C9;" points="253.254,486.912 327.033,353.912 388.84,476.717 						"/>
					</g>
					<path style="fill:#FFFFFF;" d="M316.146,383.453c1.33,2.023,3.828,4.461,5.647,6.178c2.258-3.035,3.182-3.471,6.803-2
						c3.783,1.539,7.414,3.832,10.742,6.096c0.137-2.033-0.164-3.934,0.865-5.742c2.188,1.379,2.996,0.248,3.271-1.406
						l-16.441-32.666l-19.891,35.853c0.004,0.207-0.004,0.414,0.006,0.621C309.435,388.383,313.074,383.853,316.146,383.453z"/>
				</g>
				<g>
					<polygon style="fill:#4F8587;" points="209.674,515.438 290.721,380.641 345.262,505.244 					"/>
					<path style="fill:#FFFFFF;" d="M278.125,410.385c1.588,0.594,3.869,6.377,4.842,8.055c1.969-1.738,4.035-3.875,6.744-4.574
						c3.258-0.84,4.67,1.943,7.832,2.564c1.066-1.58,1.574-5.461,3.506-6.299c0.752-0.324,1.67-0.209,2.603,0.053l-12.932-29.543
						l-18.477,30.73C274.414,410.656,276.984,409.961,278.125,410.385z"/>
				</g>
				<polygon style="fill:#8ECED1;" points="282.816,527.18 359.814,392.24 418.402,516.986 				"/>
			</g>
		</g>
	</g>
	<g>
		<rect x="0" y="150" style="fill:#B94852;" width="225.002" height="150"/>
		<g>
			<g>
				<path style="fill:#D49975;" d="M103.257,234.921c2.242-1.893,3.166-2.466,2.977-3.71c-0.345-1.673-2.74-3.237-4.413-2.438
					c-2.215,1.056-7.815,8.554-10.748,5.554l-0.528-22.915c-0.036-2.265-1.449-4.073-3.147-4.048
					c-1.71,0.032-3.059,1.894-3.016,4.165l0.289,15.89c-0.229-0.027-0.479-0.04-0.724-0.061l-0.349-19.565
					c-0.046-2.264-1.453-4.077-3.16-4.049c-1.703,0.031-3.053,1.894-3.009,4.164l0.347,19.218c-0.059-0.003-0.113-0.005-0.175-0.004
					c-0.135,0.003-0.256,0.012-0.398,0.016l-0.315-17.777c-0.039-2.265-1.455-4.079-3.152-4.044
					c-1.709,0.023-3.056,1.891-3.016,4.155l0.325,18.049c-0.148,0.018-0.312,0.037-0.461,0.052l-0.239-13.301
					c-0.026-1.42-1.421-2.55-3.125-2.512c-1.707,0.019-3.065,1.2-3.04,2.622l0.32,24.574c-0.003,0.083,0.679,6.925,0.688,7.005
					c0.623,3.921,1.759,6.518,1.759,6.518c0.803,1.902,3.664,2.253,10.888,2.348c6.74,0.083,8.884,0.26,10.012-1.285
					c0,0,1.788-2.82,3.233-4.31C96.739,244.606,103.257,234.921,103.257,234.921z"/>
				
					<rect x="75.57" y="243.162" transform="matrix(0.0265 -0.9996 0.9996 0.0265 -180.6485 326.6128)" style="fill:#FFFFFF;" width="3.606" height="25.793"/>
				
					<rect x="66.465" y="252.739" transform="matrix(0.0262 -0.9997 0.9997 0.0262 -192.5074 336.4304)" style="fill:#5F6D7A;" width="19.913" height="28.564"/>
				<path style="opacity:0.54;fill:#FFD8C7;" d="M82.691,205.45c-0.537-0.706-1.297-1.153-2.141-1.141
					c-0.927,0.01-1.722,0.573-2.223,1.417c-0.035,0.18-0.056,0.367-0.066,0.564c-0.05,1.699,0.914,3.104,2.168,3.143
					c1.248,0.038,2.304-1.304,2.356-3C82.798,206.09,82.757,205.764,82.691,205.45z"/>
				<path style="opacity:0.54;fill:#FFD8C7;" d="M89.536,208.903c-0.541-0.706-1.298-1.154-2.139-1.142
					c-0.926,0.008-1.726,0.572-2.228,1.418c-0.033,0.18-0.053,0.364-0.063,0.561c-0.052,1.697,0.92,3.105,2.165,3.143
					c1.254,0.039,2.306-1.301,2.366-2.998C89.643,209.545,89.602,209.214,89.536,208.903z"/>
				<path style="opacity:0.54;fill:#FFD8C7;" d="M75.929,206.993c-0.537-0.703-1.297-1.15-2.139-1.141
					c-0.926,0.008-1.728,0.57-2.225,1.416c-0.035,0.186-0.055,0.368-0.059,0.568c-0.054,1.695,0.91,3.103,2.16,3.143
					c1.25,0.04,2.302-1.306,2.358-3.001C76.039,207.637,75.998,207.309,75.929,206.993z"/>
				<path style="opacity:0.54;fill:#FFD8C7;" d="M69.351,213.168c-0.542-0.708-1.299-1.152-2.141-1.141
					c-0.923,0.008-1.721,0.568-2.224,1.411c-0.031,0.187-0.058,0.376-0.066,0.572c-0.048,1.692,0.916,3.098,2.163,3.143
					c1.251,0.039,2.308-1.307,2.364-3C69.459,213.812,69.416,213.479,69.351,213.168z"/>
				<path style="opacity:0.54;fill:#FFD8C7;" d="M106.234,231.211c-0.13-0.622-0.539-1.227-1.089-1.697
					c-2.295,0.69-3.757,2.72-3.302,4.694c0.117,0.501,0.348,0.947,0.663,1.337c0.478-0.395,0.751-0.624,0.751-0.624
					C105.499,233.028,106.423,232.455,106.234,231.211z"/>
			</g>
			<g>
				<path style="fill:#F9B68B;" d="M101.603,215.274c1.842,2.282,2.401,3.219,3.65,3.056c1.676-0.312,3.29-2.674,2.525-4.363
					c-1.006-2.235-8.386-7.988-5.327-10.86l22.92-0.055c2.266,0.012,4.103-1.363,4.113-3.06c0.003-1.71-1.829-3.097-4.1-3.1
					l-15.895-0.04c0.032-0.231,0.048-0.48,0.075-0.721l19.57,0.053c2.264,0.004,4.106-1.369,4.109-3.078
					c0.007-1.703-1.826-3.088-4.098-3.092l-19.219-0.053c0.005-0.059,0.006-0.11,0.007-0.173c-0.001-0.136-0.005-0.256-0.006-0.398
					l17.778,0.05c2.262,0.011,4.109-1.369,4.108-3.068c0.015-1.706-1.827-3.092-4.09-3.098l-18.052-0.051
					c-0.014-0.146-0.029-0.311-0.042-0.462l13.302,0.036c1.422,0.005,2.578-1.369,2.576-3.07c0.016-1.708-1.137-3.092-2.558-3.096
					l-24.574-0.19c-0.084-0.004-6.939,0.535-7.021,0.541c-3.931,0.544-6.552,1.627-6.552,1.627
					c-1.914,0.765-2.324,3.614-2.571,10.837c-0.228,6.736-0.451,8.877,1.078,10.036c0,0,2.781,1.848,4.241,3.321
					C92.055,208.561,101.603,215.274,101.603,215.274z"/>
				<polygon style="fill:#FFFFFF;" points="78.593,201.755 79.814,175.987 83.41,176.161 82.199,201.922 				"/>
				
					<rect x="55.784" y="177.822" transform="matrix(0.047 -0.9989 0.9989 0.047 -120.7975 248.9479)" style="fill:#344757;" width="28.565" height="19.915"/>
				<path style="opacity:0.54;fill:#FFD8C7;" d="M131.49,195.324c0.722-0.521,1.182-1.274,1.188-2.119
					c0.011-0.925-0.535-1.734-1.369-2.248c-0.18-0.042-0.364-0.066-0.561-0.078c-1.7-0.086-3.122,0.847-3.191,2.099
					c-0.063,1.249,1.258,2.332,2.953,2.42C130.851,195.42,131.179,195.383,131.49,195.324z"/>
				<path style="opacity:0.54;fill:#FFD8C7;" d="M127.899,202.094c0.719-0.521,1.181-1.269,1.184-2.112
					c0.014-0.925-0.534-1.738-1.368-2.257c-0.177-0.039-0.364-0.06-0.56-0.077c-1.698-0.085-3.122,0.855-3.187,2.103
					c-0.068,1.25,1.255,2.335,2.949,2.424C127.255,202.193,127.588,202.156,127.899,202.094z"/>
				<path style="opacity:0.54;fill:#FFD8C7;" d="M130.089,188.532c0.717-0.521,1.182-1.271,1.186-2.115
					c0.013-0.923-0.533-1.737-1.367-2.254c-0.186-0.037-0.367-0.064-0.57-0.07c-1.691-0.086-3.117,0.844-3.183,2.096
					c-0.067,1.248,1.254,2.331,2.947,2.42C129.443,188.628,129.772,188.596,130.089,188.532z"/>
				<path style="opacity:0.54;fill:#FFD8C7;" d="M124.05,181.827c0.723-0.528,1.183-1.276,1.186-2.117
					c0.01-0.923-0.531-1.732-1.364-2.253c-0.184-0.033-0.37-0.061-0.566-0.075c-1.696-0.083-3.119,0.85-3.188,2.096
					c-0.067,1.248,1.256,2.333,2.945,2.426C123.409,181.923,123.739,181.886,124.05,181.827z"/>
				<path style="opacity:0.54;fill:#FFD8C7;" d="M105.252,218.329c0.624-0.119,1.235-0.516,1.716-1.055
					c-0.643-2.308-2.641-3.812-4.621-3.397c-0.508,0.105-0.958,0.329-1.354,0.635c0.386,0.486,0.61,0.762,0.61,0.762
					C103.445,217.555,104.004,218.492,105.252,218.329z"/>
			</g>
			<g>
				<path style="fill:#F9CF90;" d="M120.279,214.014c-2.364,1.737-3.327,2.25-3.223,3.506c0.237,1.69,2.52,3.407,4.242,2.723
					c2.28-0.902,8.368-8.009,11.094-4.819l-0.999,22.896c-0.117,2.262,1.17,4.161,2.868,4.249c1.708,0.084,3.176-1.685,3.287-3.953
					l0.773-15.877c0.229,0.044,0.476,0.073,0.716,0.108l-0.956,19.548c-0.108,2.262,1.177,4.163,2.884,4.246
					c1.7,0.087,3.168-1.68,3.28-3.951l0.937-19.194c0.059,0.004,0.107,0.01,0.171,0.017c0.138,0.003,0.257,0.003,0.4,0.008
					l-0.87,17.758c-0.116,2.259,1.175,4.167,2.873,4.243c1.705,0.092,3.174-1.679,3.286-3.939l0.885-18.033
					c0.144-0.008,0.308-0.015,0.458-0.022l-0.649,13.289c-0.069,1.42,1.249,2.636,2.95,2.718c1.703,0.09,3.14-0.994,3.211-2.416
					l1.322-24.537c0.007-0.087-0.215-6.957-0.218-7.041c-0.362-3.95-1.322-6.62-1.322-6.62c-0.676-1.949-3.504-2.49-10.705-3.068
					c-6.719-0.537-8.848-0.86-10.076,0.613c0,0-1.974,2.692-3.511,4.082C127.425,204.788,120.279,214.014,120.279,214.014z"/>
				
					<rect x="145.715" y="181.753" transform="matrix(0.0932 -0.9956 0.9956 0.0932 -60.0383 323.375)" style="fill:#FFFFFF;" width="3.606" height="25.793"/>
				
					<rect x="139.24" y="169.496" transform="matrix(0.093 -0.9957 0.9957 0.093 -47.6579 315.2398)" style="fill:#B6A784;" width="19.915" height="28.564"/>
				<path style="fill:#F9E4C5;" d="M138.831,244.788c0.486,0.746,1.216,1.241,2.061,1.285c0.923,0.053,1.754-0.456,2.31-1.264
					c0.048-0.178,0.081-0.363,0.102-0.559c0.166-1.693-0.705-3.155-1.95-3.284c-1.243-0.119-2.389,1.15-2.551,2.838
					C138.762,244.147,138.784,244.476,138.831,244.788z"/>
				<path style="fill:#F9E4C5;" d="M132.23,240.891c0.489,0.74,1.218,1.238,2.06,1.281c0.923,0.056,1.759-0.454,2.317-1.266
					c0.048-0.176,0.076-0.358,0.102-0.556c0.164-1.69-0.711-3.158-1.952-3.278c-1.245-0.126-2.391,1.147-2.557,2.832
					C132.166,240.244,132.185,240.578,132.23,240.891z"/>
				<path style="fill:#F9E4C5;" d="M145.68,243.704c0.486,0.74,1.217,1.239,2.058,1.282c0.922,0.054,1.759-0.454,2.312-1.262
					c0.048-0.184,0.084-0.367,0.1-0.566c0.165-1.686-0.704-3.154-1.945-3.277c-1.246-0.125-2.389,1.147-2.552,2.834
					C145.614,243.052,145.631,243.384,145.68,243.704z"/>
				<path style="fill:#F9E4C5;" d="M152.656,237.979c0.494,0.745,1.219,1.238,2.058,1.285c0.926,0.05,1.757-0.45,2.319-1.264
					c0.039-0.18,0.076-0.363,0.097-0.56c0.163-1.688-0.705-3.155-1.947-3.283c-1.246-0.124-2.391,1.15-2.56,2.835
					C152.59,237.333,152.611,237.667,152.656,237.979z"/>
				<path style="fill:#F9E4C5;" d="M117.057,217.52c0.092,0.628,0.46,1.253,0.974,1.762c2.335-0.535,3.929-2.462,3.608-4.46
					c-0.081-0.51-0.282-0.97-0.57-1.379c-0.505,0.362-0.79,0.572-0.79,0.572C117.915,215.751,116.952,216.263,117.057,217.52z"/>
			</g>
			<g>
				<path style="fill:#F9BE93;" d="M121.826,235.908c-2.03-2.118-2.665-3.008-3.893-2.738c-1.655,0.453-3.057,2.937-2.151,4.558
					c1.19,2.146,9.029,7.251,6.222,10.373l-22.83,1.987c-2.259,0.18-3.973,1.706-3.839,3.398c0.137,1.709,2.085,2.933,4.347,2.745
					l15.837-1.302c-0.008,0.233-0.006,0.486-0.01,0.725l-19.505,1.598c-2.255,0.186-3.975,1.707-3.837,3.413
					c0.14,1.701,2.082,2.922,4.346,2.736l19.152-1.57c0.001,0.059,0.005,0.11,0.007,0.173c0.017,0.135,0.03,0.253,0.042,0.396
					l-17.717,1.449c-2.256,0.18-3.978,1.712-3.835,3.402c0.127,1.704,2.082,2.927,4.335,2.746l17.992-1.473
					c0.028,0.144,0.057,0.305,0.082,0.452l-13.259,1.085c-1.413,0.119-2.45,1.583-2.306,3.282c0.126,1.703,1.394,2.984,2.81,2.868
					l24.501-1.883c0.086-0.006,6.868-1.12,6.95-1.137c3.872-0.873,6.391-2.168,6.391-2.168c1.844-0.927,2.01-3.801,1.647-11.018
					c-0.343-6.729-0.304-8.883-1.918-9.909c0,0-2.929-1.608-4.508-2.95C131.905,241.792,121.826,235.908,121.826,235.908z"/>
				
					<rect x="142.767" y="247.496" transform="matrix(0.9993 -0.0373 0.0373 0.9993 -9.6105 5.5728)" style="fill:#FFFFFF;" width="3.606" height="25.791"/>
				
					<rect x="145.611" y="246.358" transform="matrix(0.9993 -0.0376 0.0376 0.9993 -9.6884 6.0326)" style="fill:#B3564D;" width="19.914" height="28.565"/>
				<path style="opacity:0.54;fill:#FFD8C7;" d="M93.728,258.308c-0.676,0.578-1.07,1.369-1.005,2.212
					c0.069,0.923,0.682,1.679,1.554,2.126c0.184,0.023,0.371,0.032,0.568,0.027c1.701-0.059,3.038-1.105,3.004-2.363
					c-0.045-1.244-1.45-2.215-3.15-2.159C94.358,258.159,94.031,258.222,93.728,258.308z"/>
				<path style="opacity:0.54;fill:#FFD8C7;" d="M96.734,251.258c-0.673,0.581-1.072,1.367-1.005,2.207
					c0.064,0.926,0.68,1.685,1.557,2.135c0.182,0.021,0.369,0.029,0.567,0.025c1.694-0.054,3.035-1.113,2.995-2.363
					c-0.037-1.25-1.447-2.22-3.142-2.164C97.365,251.109,97.037,251.171,96.734,251.258z"/>
				<path style="opacity:0.54;fill:#FFD8C7;" d="M95.699,264.958c-0.671,0.581-1.073,1.364-1.007,2.21
					c0.067,0.92,0.677,1.683,1.558,2.127c0.185,0.022,0.37,0.03,0.572,0.025c1.69-0.061,3.036-1.107,2.993-2.357
					c-0.038-1.253-1.443-2.219-3.141-2.166C96.332,264.805,96.006,264.867,95.699,264.958z"/>
				<path style="opacity:0.54;fill:#FFD8C7;" d="M102.281,271.129c-0.678,0.587-1.072,1.372-1.005,2.213
					c0.067,0.92,0.675,1.677,1.551,2.128c0.184,0.019,0.376,0.028,0.568,0.027c1.697-0.06,3.04-1.112,3.005-2.362
					c-0.044-1.248-1.452-2.217-3.143-2.165C102.911,270.977,102.586,271.041,102.281,271.129z"/>
				<path style="opacity:0.54;fill:#FFD8C7;" d="M117.933,233.17c-0.615,0.169-1.19,0.614-1.626,1.195
					c0.834,2.246,2.955,3.576,4.891,2.993c0.496-0.145,0.925-0.403,1.292-0.744c-0.423-0.45-0.665-0.706-0.665-0.706
					C119.795,233.79,119.16,232.9,117.933,233.17z"/>
			</g>
		</g>
	</g>
	<g>
		<rect x="224.999" style="fill:#4F83A1;" width="225.001" height="150"/>
		<g>
			<g>
				<g>
					<path style="fill:#FFC369;" d="M336.413,80.437c-26.63,0-48.297-19.872-48.297-44.293c0-1.337,0.07-2.697,0.219-4.151
						l0.162-1.605l1.605,0.153c0.345,0.032,34.777,3.333,46.032,3.336c12.732,0,46.249-3.304,46.587-3.336l1.609-0.16l0.16,1.613
						c0.147,1.454,0.217,2.814,0.217,4.151C384.707,60.564,363.045,80.437,336.413,80.437z M291.428,33.92
						c-0.049,0.762-0.07,1.494-0.07,2.223c0,22.635,20.212,41.057,45.055,41.057c24.848,0,45.057-18.422,45.057-41.057
						c0-0.726-0.023-1.462-0.072-2.22c-6.984,0.675-33.855,3.189-45.265,3.189C326.012,37.113,298.506,34.585,291.428,33.92z"/>
				</g>
				<path style="fill:#FFC670;" d="M353.89,120.975c-0.087-0.123-0.368-0.236-0.886-0.341c-12.14-2.454-4.854-36.235-4.854-36.235
					h-10.891h-1.688h-10.893c0,0,7.287,33.781-4.853,36.235c-0.522,0.106-0.8,0.219-0.89,0.341H353.89z"/>
				<path style="fill:#FFE373;" d="M364.876,65.409V23.519c0,0-20.962-1.671-28.274-1.671c-6.94,0-28.755,1.671-28.755,1.671v42.166
					h0.092c-0.038,0.513-0.092,1.028-0.092,1.548c0,14.139,18.933,26.419,28.57,25.609c11.204,0.404,28.561-11.47,28.561-25.609
					C364.978,66.616,364.925,66.013,364.876,65.409z"/>
				<rect x="311.626" y="122.086" style="fill:#FFE169;" width="49.574" height="8.061"/>
				<g>
					<path style="opacity:0.59;fill:#F6FF96;" d="M330.052,80.369c1.041,0.189,2.09,0.313,3.161,0.313
						c14.848,0,26.886-18.731,26.886-41.836c0-5.588-0.747-10.89-2.024-15.759c-2.733-0.196-5.986-0.421-9.213-0.621
						c1.494,5.211,2.342,10.965,2.342,17.038C351.205,59.544,342.143,76.276,330.052,80.369z"/>
					<path style="opacity:0.59;fill:#F3FF6E;" d="M323.355,81.285c-5.171-0.288-9.977-2.82-14.003-7.033
						c4.645,10.967,19.041,19.346,27.052,18.675c1.843,0.064,3.864-0.23,5.939-0.785C336.47,91.321,328.773,87.16,323.355,81.285z"
						/>
				</g>
			</g>
			<g>
				<path style="fill:#F9BE93;" d="M380.056,61.223c-0.558-2.723-0.618-3.753-1.743-4.159c-1.546-0.471-3.93,0.815-4.025,2.569
					c-0.126,2.323,3.578,10.375-0.245,11.453l-19.305-9.931c-1.901-0.992-4.049-0.638-4.794,0.79
					c-0.749,1.437,0.19,3.399,2.101,4.393l13.354,6.952c-0.128,0.181-0.255,0.385-0.379,0.573l-16.44-8.562
					c-1.903-0.99-4.049-0.638-4.796,0.794c-0.747,1.435,0.192,3.397,2.101,4.389l16.146,8.408c-0.028,0.055-0.053,0.096-0.079,0.147
					c-0.062,0.113-0.109,0.219-0.17,0.336l-14.935-7.783c-1.903-0.99-4.051-0.636-4.794,0.794c-0.751,1.433,0.194,3.395,2.095,4.389
					l15.169,7.902c-0.056,0.132-0.117,0.273-0.17,0.407l-11.176-5.826c-1.194-0.619-2.763,0.032-3.506,1.465
					c-0.753,1.431-0.387,3.095,0.805,3.719l20.591,10.858c0.068,0.041,6.069,2.569,6.141,2.601c3.547,1.254,6.222,1.482,6.222,1.482
					c1.946,0.194,3.534-2.026,6.88-7.997c3.121-5.567,4.243-7.272,3.463-8.909c0,0-1.535-2.769-2.12-4.64
					C385.16,71.032,380.056,61.223,380.056,61.223z"/>
				
					<rect x="373.711" y="90.62" transform="matrix(0.5011 -0.8654 0.8654 0.5011 112.6439 380.0453)" style="fill:#FFFFFF;" width="24.432" height="3.418"/>
				
					<rect x="381.087" y="88.65" transform="matrix(0.5007 -0.8656 0.8656 0.5007 112.1462 390.5742)" style="fill:#47617A;" width="27.053" height="18.863"/>
				<path style="opacity:0.54;fill:#FFD8C7;" d="M346.224,64.993c-0.832,0.126-1.548,0.558-1.922,1.264
					c-0.409,0.773-0.302,1.693,0.174,2.491c0.136,0.111,0.279,0.213,0.441,0.307c1.388,0.813,2.997,0.647,3.593-0.375
					c0.602-1.026-0.038-2.508-1.426-3.319C346.803,65.192,346.513,65.079,346.224,64.993z"/>
				<path style="opacity:0.54;fill:#FFD8C7;" d="M352.195,60.862c-0.832,0.124-1.547,0.553-1.922,1.262
					c-0.409,0.771-0.3,1.694,0.173,2.491c0.134,0.111,0.281,0.213,0.441,0.307c1.388,0.813,2.995,0.643,3.593-0.379
					c0.602-1.02-0.042-2.507-1.426-3.321C352.778,61.062,352.486,60.945,352.195,60.862z"/>
				<path style="opacity:0.54;fill:#FFD8C7;" d="M344.448,71.318c-0.828,0.126-1.545,0.554-1.918,1.262
					c-0.413,0.773-0.305,1.694,0.174,2.491c0.132,0.111,0.279,0.213,0.441,0.308c1.384,0.813,2.993,0.647,3.593-0.375
					c0.598-1.022-0.041-2.508-1.43-3.319C345.03,71.518,344.74,71.403,344.448,71.318z"/>
				<path style="opacity:0.54;fill:#FFD8C7;" d="M346.605,79.586c-0.834,0.126-1.545,0.556-1.916,1.265
					c-0.411,0.771-0.306,1.69,0.168,2.491c0.139,0.109,0.285,0.213,0.443,0.309c1.388,0.809,2.995,0.643,3.596-0.379
					c0.598-1.022-0.041-2.508-1.428-3.319C347.191,79.786,346.897,79.673,346.605,79.586z"/>
				<path style="opacity:0.54;fill:#FFD8C7;" d="M378.314,57.064c-0.575-0.172-1.262-0.104-1.903,0.138
					c-0.464,2.222,0.562,4.359,2.412,4.872c0.47,0.132,0.943,0.141,1.413,0.055c-0.115-0.575-0.179-0.905-0.179-0.905
					C379.498,58.499,379.438,57.47,378.314,57.064z"/>
			</g>
			<g>
				<path style="fill:#F9BE93;" d="M300.542,79.396c0.243-2.77,0.185-3.8,1.254-4.33c1.482-0.645,4,0.362,4.292,2.093
					c0.39,2.293-2.37,10.716,1.548,11.352l18.047-12.066c1.777-1.203,3.949-1.096,4.855,0.238c0.907,1.341,0.198,3.396-1.586,4.604
					l-12.474,8.426c0.147,0.166,0.294,0.355,0.439,0.528l15.357-10.378c1.778-1.201,3.951-1.098,4.854,0.241
					c0.903,1.339,0.196,3.395-1.588,4.6l-15.08,10.192c0.032,0.051,0.064,0.089,0.096,0.138c0.072,0.107,0.134,0.204,0.206,0.313
					l13.948-9.434c1.779-1.201,3.953-1.096,4.853,0.24c0.913,1.339,0.198,3.398-1.58,4.602l-14.165,9.581
					c0.07,0.121,0.145,0.258,0.213,0.383l10.439-7.061c1.118-0.753,2.75-0.283,3.651,1.056c0.911,1.337,0.733,3.031-0.375,3.787
					l-19.222,13.134c-0.064,0.049-5.735,3.244-5.805,3.283c-3.382,1.648-6.009,2.182-6.009,2.182
					c-1.912,0.413-3.744-1.611-7.751-7.159c-3.734-5.179-5.039-6.742-4.453-8.46c0,0,1.209-2.923,1.577-4.851
					C296.59,89.721,300.542,79.396,300.542,79.396z"/>
				
					<rect x="296.547" y="98.754" transform="matrix(0.8027 -0.5964 0.5964 0.8027 -7.3271 199.7934)" style="fill:#FFFFFF;" width="3.416" height="24.429"/>
				
					<rect x="280.847" y="104.147" transform="matrix(0.803 -0.596 0.596 0.803 -12.9394 196.2062)" style="fill:#47617A;" width="18.864" height="27.053"/>
				<path style="opacity:0.54;fill:#FFD8C7;" d="M334.582,79.288c0.839,0.03,1.601,0.375,2.054,1.034
					c0.494,0.722,0.492,1.648,0.109,2.495c-0.121,0.126-0.253,0.243-0.4,0.356c-1.288,0.966-2.904,0.984-3.613,0.034
					c-0.715-0.949-0.251-2.495,1.035-3.461C334.028,79.55,334.305,79.405,334.582,79.288z"/>
				<path style="opacity:0.54;fill:#FFD8C7;" d="M328.181,75.863c0.839,0.028,1.597,0.372,2.05,1.035
					c0.498,0.717,0.494,1.646,0.113,2.493c-0.123,0.126-0.255,0.245-0.405,0.356c-1.286,0.964-2.899,0.979-3.61,0.032
					c-0.715-0.947-0.247-2.495,1.035-3.461C327.625,76.127,327.9,75.978,328.181,75.863z"/>
				<path style="opacity:0.54;fill:#FFD8C7;" d="M337.068,85.367c0.837,0.03,1.597,0.377,2.048,1.037
					c0.502,0.719,0.498,1.646,0.113,2.493c-0.119,0.126-0.255,0.245-0.404,0.354c-1.284,0.966-2.899,0.984-3.613,0.038
					c-0.709-0.947-0.245-2.497,1.043-3.461C336.509,85.633,336.785,85.485,337.068,85.367z"/>
				<path style="opacity:0.54;fill:#FFD8C7;" d="M335.865,93.827c0.845,0.034,1.599,0.377,2.05,1.037
					c0.496,0.719,0.496,1.646,0.119,2.495c-0.128,0.125-0.262,0.243-0.407,0.358c-1.282,0.962-2.901,0.979-3.615,0.034
					c-0.709-0.947-0.243-2.497,1.041-3.463C335.308,94.095,335.589,93.948,335.865,93.827z"/>
				<path style="opacity:0.54;fill:#FFD8C7;" d="M301.797,75.065c0.553-0.238,1.243-0.247,1.907-0.079
					c0.715,2.154-0.062,4.392-1.839,5.113c-0.453,0.185-0.922,0.251-1.397,0.217c0.047-0.585,0.075-0.92,0.075-0.92
					C300.786,76.625,300.727,75.595,301.797,75.065z"/>
			</g>
		</g>
	</g>
	<g>
		<rect x="224.998" y="150" style="fill:#FDEFBB;" width="225.002" height="150"/>
		<g>
			<g>
				<path style="fill:#FFC933;" d="M349.25,219.733c0,0.349-0.389,0.636-0.863,0.636h-27.543c-0.475,0-0.861-0.287-0.861-0.636
					s0.387-0.636,0.861-0.636h27.543C348.861,219.098,349.25,219.385,349.25,219.733z"/>
			</g>
			<g>
				<polygon style="fill:#4F8587;" points="321.389,217.905 348.201,217.905 365.535,170.366 338.721,170.366 				"/>
			</g>
			<g>
				<path style="fill:#FFB13A;" d="M349.055,219.939H320.31v-3.976h28.744V219.939z M320.74,219.504h27.885v-3.105H320.74V219.504z"
					/>
			</g>
			<g>
				<g>
					<polygon style="fill:#76C6C9;" points="348.213,218.016 321.398,218.016 302.219,169.598 329.033,169.598 					"/>
				</g>
			</g>
			<path style="fill:#FFB13A;" d="M348.213,220.369c0.57,0,1.037-0.287,1.037-0.636s-0.467-0.636-1.037-0.636h-12.357l-1.723,1.271
				H348.213z"/>
			<g>
				<path style="fill:#FFD633;" d="M365.973,253.461c0,16.992-13.729,30.766-30.664,30.766c-16.936,0-30.666-13.773-30.666-30.766
					c0-16.99,13.73-30.763,30.666-30.763C352.244,222.698,365.973,236.471,365.973,253.461z"/>
			</g>
			<g>
				<path style="fill:#FFB13A;" d="M364.611,253.463c0,16.269-13.121,29.461-29.303,29.461c-16.184,0-29.303-13.191-29.303-29.461
					c0-16.271,13.119-29.462,29.303-29.462C351.49,224.001,364.611,237.191,364.611,253.463z"/>
			</g>
			<g>
				<path style="fill:#FFE066;" d="M359.402,253.463c0,13.379-10.785,24.225-24.094,24.225c-13.305,0-24.092-10.846-24.092-24.225
					c0-13.379,10.787-24.225,24.092-24.225C348.617,229.238,359.402,240.084,359.402,253.463z"/>
			</g>
			<g>
				<path style="fill:#B92431;" d="M335.309,280.662c-14.916,0-27.053-12.201-27.053-27.199c0-15,12.137-27.201,27.053-27.201
					c14.916,0,27.053,12.201,27.053,27.201C362.361,268.461,350.225,280.662,335.309,280.662z M335.309,228.286
					c-13.809,0-25.041,11.294-25.041,25.177c0,13.881,11.232,25.178,25.041,25.178c13.807,0,25.041-11.297,25.041-25.178
					C360.35,239.58,349.115,228.286,335.309,228.286z"/>
			</g>
			<g>
				<path style="fill:#FFB13A;" d="M335.293,224.04c-1.471,0-2.666-1.104-2.666-2.466c0-1.359,1.195-2.465,2.666-2.465
					s2.666,1.105,2.666,2.465C337.959,222.936,336.764,224.04,335.293,224.04z M335.293,219.807c-1.117,0-2.027,0.793-2.027,1.768
					c0,0.975,0.91,1.769,2.027,1.769c1.117,0,2.027-0.794,2.027-1.769C337.32,220.6,336.41,219.807,335.293,219.807z"/>
			</g>
			<path style="opacity:0.59;fill:#F6FF8F;" d="M352.281,236.271c-9.055,13.121-21.531,24.039-36.27,31.695
				c4.393,5.9,11.402,9.721,19.297,9.721c13.309,0,24.094-10.846,24.094-24.225C359.402,246.742,356.678,240.66,352.281,236.271z"/>
			<g>
				<path style="fill:#FFB13A;" d="M336.967,258.654c0,0.508,0.029,0.893,0.086,1.15c0.057,0.258,0.158,0.469,0.303,0.631
					c0.145,0.162,0.354,0.289,0.625,0.381c0.27,0.092,0.611,0.162,1.023,0.211c0.412,0.049,0.957,0.08,1.631,0.098v0.961h-9.715
					v-0.961c0.973-0.043,1.668-0.103,2.084-0.176c0.416-0.076,0.734-0.185,0.953-0.336c0.219-0.148,0.379-0.359,0.48-0.631
					c0.1-0.271,0.15-0.715,0.15-1.328v-10.66c0-0.35-0.061-0.607-0.184-0.77c-0.123-0.162-0.303-0.242-0.539-0.242
					c-0.281,0-0.68,0.145-1.197,0.434c-0.516,0.289-1.156,0.688-1.918,1.195l-0.578-1.012l6.15-3.668h0.723
					c-0.051,0.842-0.078,2.008-0.078,3.498V258.654z"/>
			</g>
		</g>
	</g>
	<g>
		<rect x="0" y="300" style="fill:#5AC7B9;" width="225.001" height="150"/>
		<path style="fill:#B92431;" d="M112.171,398.619c1.228,0,2.23-1.002,2.23-2.229l-0.001-3.844c0-1.229-1.002-2.23-2.23-2.23h-3.293
			c-0.14-0.736-0.318-1.451-0.516-2.162l2.799-1.16c1.135-0.469,1.678-1.779,1.207-2.912l-1.471-3.551
			c-0.471-1.137-1.781-1.68-2.914-1.209l-3.059,1.266c-0.443-0.68-0.911-1.342-1.414-1.977l2.476-2.475
			c0.867-0.869,0.867-2.285,0-3.152l-2.719-2.719c-0.867-0.867-2.287-0.867-3.154,0l-2.711,2.709c-0.615-0.41-1.252-0.787-1.9-1.148
			l1.341-3.236c0.47-1.133-0.073-2.445-1.208-2.912l-3.551-1.473c-1.133-0.469-2.445,0.074-2.913,1.209l-1.469,3.545
			c-0.408-0.082-0.819-0.156-1.232-0.221v-3.117c0-1.227-1.003-2.23-2.231-2.23h-3.844c-1.226,0-2.229,1.004-2.229,2.23v3.158
			c-0.74,0.119-1.464,0.277-2.183,0.455l-1.198-2.891c-0.469-1.135-1.778-1.676-2.912-1.209l-3.553,1.471
			c-1.133,0.471-1.676,1.781-1.206,2.912l1.212,2.93c-0.486,0.303-0.967,0.613-1.434,0.943l-2.415-2.416
			c-0.866-0.863-2.286-0.863-3.154,0l-2.718,2.721c-0.867,0.867-0.867,2.285,0,3.154l2.328,2.33
			c-0.445,0.59-0.858,1.209-1.256,1.836l-3.158-1.309c-1.134-0.469-2.443,0.072-2.914,1.207l-1.471,3.551
			c-0.471,1.135,0.072,2.445,1.206,2.914l3.046,1.26c-0.143,0.557-0.27,1.111-0.378,1.678h-3.293c-1.228,0-2.23,1.002-2.23,2.23
			l-0.001,3.844c0,1.227,1.004,2.229,2.23,2.229h3.023c0.09,0.74,0.22,1.471,0.368,2.189l-3.055,1.266
			c-1.132,0.469-1.677,1.779-1.206,2.914l1.472,3.551c0.469,1.135,1.778,1.678,2.913,1.207l2.795-1.158
			c0.33,0.586,0.674,1.162,1.047,1.721l-2,2c-0.867,0.863-0.867,2.285,0,3.15l2.717,2.721c0.868,0.863,2.288,0.865,3.154,0
			l1.765-1.766c0.579,0.459,1.183,0.887,1.799,1.301l-1.089,2.627c-0.469,1.133,0.074,2.443,1.207,2.914l3.553,1.471
			c1.132,0.471,2.442-0.072,2.912-1.207l0.955-2.303c1.02,0.291,2.057,0.529,3.121,0.699v3.158c0,1.229,1.002,2.232,2.229,2.232
			h3.844c1.229,0,2.231-1.004,2.231-2.232v-3.117c0.741-0.109,1.466-0.264,2.186-0.432l1.212,2.926
			c0.469,1.131,1.78,1.674,2.914,1.207l3.551-1.475c1.133-0.469,1.676-1.777,1.207-2.91l-1.197-2.893
			c0.782-0.473,1.544-0.977,2.271-1.523l2.033,2.033c0.867,0.867,2.287,0.867,3.154,0l2.719-2.719c0.865-0.867,0.865-2.285,0-3.152
			l-2.12-2.121c0.428-0.605,0.822-1.23,1.201-1.873l2.671,1.107c1.134,0.471,2.445-0.074,2.914-1.209l1.47-3.551
			c0.471-1.133-0.073-2.443-1.206-2.912l-2.779-1.152c0.199-0.883,0.367-1.777,0.479-2.689H112.171z M82.444,406.266
			c-6.029,0-10.918-4.887-10.918-10.918c0-6.031,4.889-10.918,10.918-10.918c6.029,0,10.917,4.887,10.917,10.918
			C93.361,401.379,88.473,406.266,82.444,406.266z"/>
		<g style="opacity:0.28;">
			<path style="fill:#B92431;" d="M76.984,370.568c0.719-0.178,1.442-0.336,2.183-0.455v-3.158c0-1.229,1.002-2.23,2.229-2.23h3.844
				c0.421,0,0.812,0.123,1.148,0.328c-0.254-0.953-1.117-1.662-2.148-1.662h-3.844c-1.226,0-2.229,1.004-2.229,2.23v3.158
				c-0.601,0.098-1.185,0.232-1.77,0.369L76.984,370.568z"/>
			<path style="fill:#B92431;" d="M105.924,381.922l3.059-1.266c0.691-0.287,1.447-0.193,2.04,0.18l-0.126-0.305
				c-0.471-1.137-1.781-1.68-2.914-1.209l-3.023,1.252C105.289,381.018,105.622,381.459,105.924,381.922z"/>
			<path style="fill:#B92431;" d="M87.47,370.072c0.413,0.063,0.824,0.139,1.232,0.221l1.469-3.547
				c0.468-1.133,1.78-1.676,2.913-1.207l3.551,1.471c0.104,0.043,0.198,0.102,0.293,0.158c-0.174-0.648-0.628-1.217-1.293-1.49
				l-3.551-1.473c-1.133-0.469-2.445,0.074-2.913,1.209l-1.469,3.545c-0.077-0.016-0.155-0.027-0.232-0.041V370.072z"/>
			<path style="fill:#B92431;" d="M96.744,372.576l-0.241,0.584c0.648,0.361,1.285,0.738,1.9,1.148l2.711-2.709
				c0.867-0.867,2.287-0.867,3.154,0l2.242,2.242c-0.105-0.313-0.275-0.607-0.524-0.857l-2.719-2.719
				c-0.867-0.867-2.287-0.867-3.154,0l-2.711,2.709C97.19,372.832,96.962,372.711,96.744,372.576z"/>
			<path style="fill:#B92431;" d="M94.361,396.682c0-2.754-1.027-5.264-2.71-7.186c1.077,1.693,1.71,3.697,1.71,5.852
				c0,6.031-4.888,10.918-10.917,10.918c-3.275,0-6.206-1.449-8.208-3.734c1.938,3.045,5.333,5.068,9.208,5.068
				C89.473,407.6,94.361,402.713,94.361,396.682z"/>
			<path style="fill:#B92431;" d="M112.741,403.951c-0.173-0.648-0.627-1.215-1.291-1.49l-1.606-0.666
				c-0.057,0.283-0.109,0.566-0.173,0.848l2.779,1.152C112.554,403.838,112.647,403.895,112.741,403.951z"/>
			<path style="fill:#B92431;" d="M109.578,390.316c0.11,0.439,0.214,0.883,0.3,1.334h3.293c0.421,0,0.812,0.125,1.147,0.328
				c-0.253-0.953-1.116-1.662-2.147-1.662H109.578z"/>
			<path style="fill:#B92431;" d="M105.53,412.029c-0.046,0.066-0.084,0.137-0.13,0.203l1.642,1.643
				c-0.105-0.313-0.274-0.607-0.521-0.855L105.53,412.029z"/>
			<path style="fill:#B92431;" d="M59.083,377.328c-0.266-0.781-0.097-1.68,0.522-2.299l2.718-2.721
				c0.868-0.865,2.288-0.865,3.154,0l2.415,2.416c0.467-0.33,0.947-0.641,1.434-0.943l-1.212-2.93
				c-0.47-1.131,0.073-2.441,1.206-2.912l3.553-1.471c0.691-0.285,1.447-0.191,2.039,0.18l-0.127-0.305
				c-0.469-1.135-1.778-1.676-2.912-1.209l-3.553,1.471c-1.133,0.471-1.676,1.781-1.206,2.912l1.212,2.93
				c-0.486,0.303-0.967,0.613-1.434,0.943l-2.415-2.416c-0.866-0.863-2.286-0.863-3.154,0l-2.718,2.721
				c-0.867,0.867-0.867,2.285,0,3.154L59.083,377.328z"/>
			<path style="fill:#B92431;" d="M79.166,426.408v-3.158c-0.337-0.055-0.668-0.127-1-0.193v2.018c0,0.809,0.438,1.512,1.083,1.904
				C79.201,426.795,79.166,426.605,79.166,426.408z"/>
			<path style="fill:#B92431;" d="M67.419,421.676l1.089-2.627c-0.409-0.275-0.8-0.572-1.194-0.865l-0.895,2.158
				c-0.426,1.029-0.011,2.197,0.916,2.758C67.212,422.641,67.224,422.145,67.419,421.676z"/>
			<path style="fill:#B92431;" d="M89.656,422.859c-0.136,0.031-0.273,0.059-0.41,0.09l0.622,1.502
				c0.183,0.439,0.495,0.789,0.872,1.025L89.656,422.859z"/>
			<path style="fill:#B92431;" d="M51.485,397.725l0.001-3.844c0-1.229,1.003-2.23,2.23-2.23h3.293
				c0.108-0.566,0.235-1.121,0.378-1.678l-1.189-0.492c-0.063,0.279-0.135,0.555-0.188,0.836h-3.293c-1.228,0-2.23,1.002-2.23,2.23
				l-0.001,3.844c0,0.807,0.438,1.508,1.082,1.898C51.519,398.107,51.485,397.92,51.485,397.725z"/>
			<path style="fill:#B92431;" d="M53.05,387.223c-0.123-0.457-0.109-0.955,0.085-1.424l1.471-3.551
				c0.471-1.135,1.78-1.676,2.914-1.207l3.158,1.309c0.397-0.627,0.811-1.246,1.256-1.836l-1.136-1.137
				c-0.391,0.531-0.766,1.078-1.12,1.639l-3.158-1.309c-1.134-0.469-2.443,0.072-2.914,1.207l-1.471,3.551
				C51.708,385.496,52.122,386.664,53.05,387.223z"/>
			<path style="fill:#B92431;" d="M59.073,413.643l2-2c-0.373-0.559-0.717-1.135-1.047-1.721l-0.15,0.063
				c0.068,0.105,0.127,0.219,0.197,0.324l-2,2c-0.867,0.863-0.867,2.285,0,3.15l0.477,0.476
				C58.285,415.156,58.454,414.258,59.073,413.643z"/>
			<path style="fill:#B92431;" d="M52.846,406.322c-0.471-1.135,0.074-2.445,1.206-2.914l3.055-1.266
				c-0.148-0.719-0.278-1.449-0.368-2.19h-0.794c0.051,0.285,0.104,0.572,0.162,0.855l-3.055,1.266
				c-1.132,0.469-1.677,1.779-1.206,2.914l1.472,3.551c0.183,0.443,0.495,0.791,0.874,1.029L52.846,406.322z"/>
		</g>
		<path style="fill:#4F8587;" d="M161.672,413.599c0.898,0,1.631-0.733,1.631-1.63v-2.813c0-0.895-0.733-1.63-1.631-1.63h-2.409
			c-0.102-0.533-0.232-1.06-0.376-1.579l2.047-0.848c0.829-0.344,1.227-1.302,0.883-2.13l-1.076-2.597
			c-0.344-0.83-1.302-1.226-2.13-0.883l-2.236,0.925c-0.326-0.497-0.666-0.983-1.034-1.443l1.811-1.813
			c0.634-0.632,0.634-1.671,0-2.307l-1.987-1.987c-0.634-0.633-1.673-0.633-2.308,0l-1.983,1.985
			c-0.449-0.304-0.915-0.579-1.389-0.842l0.981-2.365c0.342-0.83-0.054-1.788-0.884-2.13l-2.596-1.076
			c-0.83-0.342-1.789,0.053-2.132,0.883l-1.072,2.594c-0.3-0.06-0.598-0.118-0.902-0.161v-2.281c0-0.897-0.734-1.632-1.632-1.632
			h-2.81c-0.896,0-1.629,0.735-1.629,1.632v2.309c-0.54,0.086-1.072,0.205-1.596,0.332l-0.876-2.113
			c-0.342-0.832-1.302-1.227-2.13-0.883l-2.596,1.074c-0.828,0.346-1.227,1.302-0.883,2.132l0.888,2.139
			c-0.358,0.221-0.707,0.449-1.049,0.691l-1.765-1.765c-0.635-0.635-1.672-0.635-2.308,0l-1.987,1.988
			c-0.634,0.635-0.634,1.672,0,2.306l1.703,1.7c-0.326,0.435-0.628,0.888-0.92,1.348l-2.309-0.958
			c-0.828-0.344-1.786,0.054-2.131,0.884l-1.075,2.595c-0.343,0.83,0.055,1.786,0.883,2.132l2.227,0.921
			c-0.104,0.404-0.197,0.813-0.276,1.223h-2.409c-0.898,0-1.631,0.735-1.631,1.63v2.813c0,0.897,0.733,1.63,1.631,1.63h2.211
			c0.065,0.54,0.16,1.074,0.269,1.602l-2.234,0.925c-0.828,0.342-1.226,1.3-0.884,2.13l1.076,2.599
			c0.345,0.828,1.303,1.225,2.131,0.883l2.044-0.848c0.241,0.426,0.494,0.848,0.766,1.256l-1.464,1.463
			c-0.633,0.634-0.633,1.672,0,2.304l1.988,1.988c0.633,0.633,1.672,0.635,2.306,0l1.292-1.29c0.421,0.335,0.863,0.649,1.314,0.949
			l-0.796,1.923c-0.344,0.828,0.054,1.788,0.883,2.13l2.597,1.076c0.827,0.342,1.788-0.053,2.13-0.883l0.699-1.685
			c0.743,0.212,1.504,0.386,2.282,0.511v2.313c0,0.893,0.734,1.628,1.629,1.628h2.81c0.898,0,1.632-0.735,1.632-1.628v-2.281
			c0.541-0.082,1.072-0.195,1.598-0.318l0.887,2.139c0.344,0.83,1.302,1.227,2.13,0.883l2.597-1.076
			c0.828-0.342,1.227-1.3,0.882-2.132l-0.875-2.111c0.572-0.347,1.13-0.714,1.662-1.114l1.486,1.486
			c0.634,0.635,1.672,0.635,2.306,0l1.988-1.99c0.635-0.632,0.635-1.671,0-2.304l-1.551-1.551c0.314-0.442,0.602-0.9,0.879-1.367
			l1.954,0.807c0.828,0.342,1.786-0.054,2.131-0.883l1.075-2.599c0.343-0.826-0.053-1.786-0.883-2.128l-2.031-0.842
			c0.145-0.646,0.268-1.3,0.349-1.967H161.672z M139.934,419.189c-4.41,0-7.983-3.574-7.983-7.984c0-4.408,3.574-7.981,7.983-7.981
			s7.983,3.573,7.983,7.981C147.917,415.615,144.344,419.189,139.934,419.189z"/>
		<g style="opacity:0.73;">
			<path style="fill:#FFDFA6;" d="M156.808,400.957l2.237-0.925c0.569-0.237,1.197-0.116,1.647,0.247
				c-0.376-0.765-1.285-1.121-2.081-0.791l-2.202,0.911C156.539,400.587,156.682,400.766,156.808,400.957z"/>
			<path style="fill:#FFDFA6;" d="M150.011,394.326l-0.093,0.225c0.474,0.263,0.94,0.539,1.389,0.842l1.983-1.985
				c0.634-0.633,1.673-0.633,2.308,0l1.829,1.828c-0.074-0.137-0.161-0.27-0.276-0.386l-1.987-1.987
				c-0.634-0.633-1.673-0.633-2.308,0l-1.983,1.985C150.593,394.661,150.3,394.498,150.011,394.326z"/>
			<path style="fill:#FFDFA6;" d="M143.313,392.294c0.303,0.044,0.602,0.102,0.902,0.161l1.072-2.594
				c0.343-0.83,1.302-1.225,2.132-0.883l2.596,1.076c0.149,0.061,0.278,0.149,0.397,0.246c-0.168-0.344-0.452-0.633-0.832-0.79
				l-2.596-1.076c-0.83-0.342-1.789,0.053-2.132,0.883l-1.072,2.594c-0.155-0.032-0.312-0.056-0.468-0.084V392.294z"/>
			<path style="fill:#FFDFA6;" d="M157.54,424.129l-1.074-1.074c-0.015,0.023-0.027,0.046-0.043,0.067l1.395,1.395
				C157.744,424.378,157.656,424.245,157.54,424.129z"/>
			<path style="fill:#FFDFA6;" d="M159.567,407.525c0.041,0.182,0.095,0.36,0.13,0.544h2.409c0.39,0,0.743,0.146,1.025,0.375
				c-0.267-0.54-0.818-0.919-1.459-0.919H159.567z"/>
			<path style="fill:#FFDFA6;" d="M148.352,411.749c0-2.011-0.749-3.843-1.978-5.247c0.966,1.32,1.543,2.943,1.543,4.703
				c0,4.41-3.574,7.984-7.983,7.984c-2.397,0-4.541-1.062-6.005-2.734c1.452,1.985,3.791,3.278,6.439,3.278
				C144.778,419.733,148.352,416.159,148.352,411.749z"/>
			<path style="fill:#FFDFA6;" d="M135.645,392.654c0.524-0.126,1.055-0.246,1.596-0.332v-2.309c0-0.897,0.734-1.632,1.629-1.632
				h2.81c0.39,0,0.744,0.146,1.026,0.376c-0.267-0.54-0.819-0.92-1.46-0.92h-2.81c-0.896,0-1.629,0.735-1.629,1.632v2.309
				c-0.476,0.076-0.943,0.179-1.406,0.288L135.645,392.654z"/>
			<path style="fill:#FFDFA6;" d="M161.977,417.198c-0.169-0.344-0.453-0.632-0.833-0.79l-1.529-0.634
				c-0.024,0.112-0.044,0.225-0.068,0.335l2.031,0.842C161.727,417.013,161.857,417.101,161.977,417.198z"/>
			<path style="fill:#FFDFA6;" d="M122.547,424.154l1.464-1.463c-0.272-0.409-0.525-0.83-0.766-1.257l-0.082,0.035
				c0.137,0.226,0.267,0.456,0.413,0.677l-1.464,1.463c-0.633,0.634-0.633,1.672,0,2.304l0.157,0.158
				C121.942,425.456,122.029,424.671,122.547,424.154z"/>
			<path style="fill:#FFDFA6;" d="M128.65,430.029l0.796-1.923c-0.174-0.116-0.337-0.246-0.507-0.367l-0.723,1.746
				c-0.283,0.679-0.06,1.443,0.486,1.886C128.501,430.964,128.463,430.478,128.65,430.029z"/>
			<path style="fill:#FFDFA6;" d="M137.241,433.491v-2.313c-0.147-0.023-0.29-0.056-0.434-0.082v1.851
				c0,0.505,0.24,0.955,0.606,1.255C137.306,433.986,137.241,433.745,137.241,433.491z"/>
			<path style="fill:#FFDFA6;" d="M145.798,433.031l-0.887-2.139c-0.063,0.014-0.129,0.023-0.193,0.039l0.646,1.556
				c0.107,0.26,0.279,0.47,0.483,0.635C145.832,433.091,145.812,433.064,145.798,433.031z"/>
			<path style="fill:#FFDFA6;" d="M119.069,421.399l-1.076-2.599c-0.342-0.83,0.055-1.788,0.884-2.13l2.234-0.925
				c-0.11-0.528-0.204-1.062-0.269-1.602h-0.343c0.055,0.354,0.105,0.711,0.178,1.058l-2.234,0.925
				c-0.828,0.342-1.226,1.3-0.884,2.13l1.076,2.599c0.107,0.258,0.278,0.469,0.483,0.633
				C119.102,421.457,119.082,421.43,119.069,421.399z"/>
			<path style="fill:#FFDFA6;" d="M122.659,397.836c-0.327-0.616-0.239-1.4,0.278-1.918l1.987-1.988
				c0.635-0.635,1.672-0.635,2.308,0l1.765,1.765c0.342-0.242,0.692-0.47,1.049-0.691l-0.888-2.139
				c-0.343-0.83,0.055-1.786,0.884-2.132l2.596-1.074c0.569-0.237,1.196-0.118,1.646,0.246c-0.375-0.763-1.285-1.12-2.08-0.79
				l-2.596,1.074c-0.828,0.346-1.227,1.302-0.883,2.132l0.888,2.139c-0.358,0.221-0.707,0.449-1.049,0.691l-1.765-1.765
				c-0.635-0.635-1.672-0.635-2.308,0l-1.987,1.988c-0.634,0.635-0.634,1.672,0,2.306L122.659,397.836z"/>
			<path style="fill:#FFDFA6;" d="M118.258,405.137c-0.201-0.409-0.239-0.893-0.053-1.344l1.075-2.595
				c0.345-0.83,1.303-1.228,2.131-0.884l2.309,0.958c0.291-0.46,0.593-0.913,0.92-1.348l-0.479-0.477
				c-0.308,0.416-0.598,0.844-0.875,1.281l-2.309-0.958c-0.828-0.344-1.786,0.054-2.131,0.884l-1.075,2.595
				C117.49,403.93,117.713,404.693,118.258,405.137z"/>
			<path style="fill:#FFDFA6;" d="M116.999,412.513V409.7c0-0.895,0.733-1.63,1.631-1.63h2.409c0.078-0.411,0.172-0.819,0.275-1.223
				l-0.51-0.211c-0.071,0.297-0.143,0.591-0.2,0.89h-2.409c-0.898,0-1.631,0.735-1.631,1.63v2.813c0,0.507,0.24,0.956,0.606,1.256
				C117.065,413.009,116.999,412.769,116.999,412.513z"/>
		</g>
		<path style="fill:#FFEFAD;" d="M135.812,343.406c0-8.772-6.807-15.879-15.206-15.879c-8.396,0-15.203,7.107-15.203,15.879
			c0,6.369,6.324,12.137,6.324,12.137c1.352,1.234,2.563,3.767,2.691,5.635l0.145,2.076c0.129,1.865,1.702,3.396,3.496,3.396h5.098
			c1.795,0,3.367-1.531,3.496-3.396l0.145-2.076c0.129-1.867,1.34-4.4,2.689-5.635C129.487,355.543,135.812,349.775,135.812,343.406
			z"/>
		<path style="fill:#5F6D7A;" d="M125.414,375.373c0,0.522-0.536,0.947-1.193,0.947h-7.226c-0.656,0-1.193-0.426-1.193-0.947v-0.316
			c0-0.521,0.537-0.947,1.193-0.947h7.226c0.657,0,1.193,0.426,1.193,0.947V375.373z"/>
		<path style="fill:#5F6D7A;" d="M125.414,372.734c0,0.521-0.536,0.945-1.193,0.945h-7.226c-0.656,0-1.193-0.424-1.193-0.945v-0.318
			c0-0.521,0.537-0.945,1.193-0.945h7.226c0.657,0,1.193,0.424,1.193,0.945V372.734z"/>
		<path style="fill:#5F6D7A;" d="M125.414,370.135c0,0.522-0.536,0.947-1.193,0.947h-7.226c-0.656,0-1.193-0.426-1.193-0.947v-0.316
			c0-0.521,0.537-0.947,1.193-0.947h7.226c0.657,0,1.193,0.426,1.193,0.947V370.135z"/>
		<path style="fill:#5F6D7A;" d="M123.891,377.352c0,0.521-0.366,0.947-0.815,0.947h-4.937c-0.449,0-0.816-0.426-0.816-0.947v-0.316
			c0-0.52,0.367-0.947,0.816-0.947h4.937c0.449,0,0.815,0.428,0.815,0.947V377.352z"/>
		<g>
			<path style="fill:#FFD633;" d="M121.857,321.707c0,0.55-0.377,1-0.838,1c-0.461,0-0.838-0.45-0.838-1v-7.564
				c0-0.55,0.377-1,0.838-1c0.461,0,0.838,0.45,0.838,1V321.707z"/>
		</g>
		<g>
			<path style="fill:#FFD633;" d="M110.748,316.529c-0.203-0.512-0.717-0.779-1.142-0.595c-0.425,0.185-0.608,0.753-0.405,1.265
				l2.769,6.98c0.203,0.512,0.717,0.779,1.143,0.595c0.426-0.185,0.608-0.753,0.406-1.265L110.748,316.529z"/>
		</g>
		<g>
			<path style="fill:#FFD633;" d="M101.496,322.514c-0.38-0.397-0.958-0.444-1.284-0.104c-0.326,0.341-0.281,0.944,0.099,1.342
				l5.095,5.32c0.38,0.397,0.958,0.444,1.284,0.104c0.326-0.341,0.281-0.944-0.099-1.342L101.496,322.514z"/>
		</g>
		<g>
			<path style="fill:#FFD633;" d="M95.145,331.736c-0.505-0.218-1.063-0.032-1.239,0.412c-0.177,0.444,0.092,0.987,0.597,1.206
				l6.629,2.867c0.505,0.219,1.063,0.033,1.239-0.412c0.177-0.445-0.092-0.988-0.597-1.206L95.145,331.736z"/>
		</g>
		<g>
			<path style="fill:#FFD633;" d="M93.368,342.787c-0.55,0-1,0.395-1,0.876c0,0.481,0.45,0.876,1,0.876h7.162
				c0.55,0,1-0.395,1-0.876c0.001-0.481-0.45-0.876-0.999-0.876H93.368z"/>
		</g>
		<g>
			<path style="fill:#FFD633;" d="M127.844,323.51c-0.203,0.512-0.02,1.08,0.406,1.265s0.941-0.083,1.144-0.595l2.768-6.98
				c0.203-0.512,0.02-1.08-0.405-1.265c-0.425-0.185-0.939,0.083-1.142,0.595L127.844,323.51z"/>
		</g>
		<g>
			<path style="fill:#FFD633;" d="M134.771,327.834c-0.381,0.397-0.425,1.001-0.1,1.342c0.326,0.341,0.903,0.294,1.284-0.104
				l5.096-5.32c0.38-0.398,0.425-1.001,0.1-1.342c-0.326-0.341-0.903-0.294-1.284,0.104L134.771,327.834z"/>
		</g>
		<g>
			<path style="fill:#FFD633;" d="M139.588,334.603c-0.505,0.218-0.773,0.761-0.597,1.206s0.734,0.631,1.239,0.412l6.629-2.867
				c0.505-0.219,0.773-0.762,0.597-1.206c-0.176-0.444-0.734-0.63-1.239-0.412L139.588,334.603z"/>
		</g>
		<g>
			<path style="fill:#FFD633;" d="M140.831,342.787c-0.55,0-0.999,0.395-0.999,0.876c0.001,0.481,0.451,0.876,1.001,0.876h7.161
				c0.55,0,1-0.395,1-0.876c0-0.481-0.45-0.876-1-0.876H140.831z"/>
		</g>
		<path style="fill:#5F6D7A;" d="M125.258,367.522c0,0.521-0.519,0.951-1.154,0.951h-6.992c-0.635,0-1.156-0.43-1.156-0.951v-0.315
			c0-0.52,0.521-0.945,1.156-0.945h6.992c0.635,0,1.154,0.426,1.154,0.945V367.522z"/>
		<path style="fill:#FFE26E;" d="M130.057,330.98c-1.272,10.379-8.607,19.229-18.947,23.953c0.379,0.391,0.617,0.609,0.617,0.609
			c1.352,1.234,2.563,3.767,2.691,5.635l0.145,2.076c0.129,1.865,1.702,3.396,3.496,3.396h5.098c1.795,0,3.367-1.531,3.496-3.396
			l0.145-2.076c0.129-1.867,1.34-4.4,2.689-5.635c0,0,6.325-5.768,6.325-12.137C135.812,338.369,133.56,333.889,130.057,330.98z"/>
		<path style="fill:#FFFFFF;" d="M129.434,342.758c-0.282,0-0.469-0.342-0.743-0.902c-0.296-0.609-0.665-1.369-1.468-1.369
			c-0.803,0-1.172,0.76-1.468,1.369c-0.274,0.56-0.462,0.902-0.743,0.902c-0.281,0-0.467-0.342-0.74-0.902
			c-0.298-0.609-0.666-1.369-1.467-1.369c-0.803,0-1.171,0.76-1.468,1.369c-0.274,0.56-0.459,0.902-0.74,0.902
			c-0.281,0-0.466-0.342-0.739-0.902c-0.296-0.609-0.666-1.369-1.467-1.369c-0.801,0-1.17,0.76-1.466,1.369
			c-0.273,0.56-0.458,0.902-0.738,0.902c-0.28,0-0.465-0.342-0.739-0.9c-0.295-0.609-0.662-1.371-1.462-1.371
			c-0.802,0-1.169,0.76-1.466,1.369c-0.272,0.56-0.459,0.902-0.74,0.902c-0.225,0-0.406,0.191-0.406,0.426s0.182,0.424,0.406,0.424
			c0.803,0,1.17-0.756,1.467-1.365c0.096-0.197,0.178-0.353,0.258-0.492l4.26,22.797c0.039,0.199,0.209,0.342,0.401,0.342
			c0.025,0,0.052-0.002,0.077-0.008c0.221-0.045,0.367-0.268,0.322-0.502l-4.271-22.863c0.138,0.152,0.269,0.393,0.429,0.725
			c0.296,0.611,0.664,1.367,1.465,1.367c0.802,0,1.169-0.756,1.466-1.365c0.271-0.563,0.457-0.902,0.738-0.902
			c0.281,0,0.467,0.34,0.74,0.902c0.295,0.609,0.665,1.365,1.466,1.365c0.803,0,1.171-0.756,1.466-1.365
			c0.273-0.563,0.461-0.902,0.742-0.902c0.281,0,0.467,0.34,0.74,0.902c0.296,0.609,0.664,1.365,1.467,1.365
			c0.803,0,1.172-0.756,1.471-1.365c0.021-0.047,0.041-0.082,0.061-0.125l-4.16,22.262c-0.043,0.234,0.102,0.457,0.322,0.502
			c0.028,0.006,0.054,0.008,0.08,0.008c0.189,0,0.361-0.143,0.398-0.342l4.311-23.07c0.154,0.146,0.295,0.4,0.471,0.766
			c0.298,0.609,0.666,1.365,1.469,1.365c0.225,0,0.408-0.189,0.408-0.424S129.659,342.758,129.434,342.758z"/>
	</g>
	<g>
		<rect x="0" style="fill:#FAE28C;" width="225.001" height="150"/>
		<g>
			<circle style="fill:#B92431;" cx="110.574" cy="77" r="51.575"/>
			<circle style="fill:#FFDFA6;" cx="110.574" cy="77" r="45.011"/>
			<path style="fill:#B92431;" d="M149.324,77c0,21.401-17.349,38.749-38.75,38.749c-21.401,0-38.75-17.348-38.75-38.749
				s17.349-38.751,38.75-38.751C131.975,38.249,149.324,55.599,149.324,77z"/>
			<path style="fill:#FFDFA6;" d="M142.535,77c0,17.652-14.309,31.96-31.961,31.96c-17.652,0-31.961-14.308-31.961-31.96
				s14.309-31.962,31.961-31.962C128.226,45.038,142.535,59.348,142.535,77z"/>
			<circle style="fill:#B92431;" cx="110.574" cy="77" r="26.064"/>
			<path style="fill:#FFDFA6;" d="M130.68,77c0,11.104-9.001,20.104-20.105,20.104c-11.104,0-20.105-9-20.105-20.104
				s9.001-20.106,20.105-20.106C121.679,56.894,130.68,65.896,130.68,77z"/>
			<circle style="fill:#B92431;" cx="110.574" cy="77" r="15.139"/>
			<circle style="fill:#FFDFA6;" cx="110.574" cy="77" r="10.67"/>
			<path style="fill:#B92431;" d="M116.527,77c0,3.288-2.665,5.952-5.953,5.952c-3.288,0-5.953-2.665-5.953-5.952
				c0-3.289,2.665-5.954,5.953-5.954C113.863,71.046,116.527,73.711,116.527,77z"/>
			<g>
				<path style="fill:#344757;" d="M110.871,78.828c-0.64,0-1.264-0.328-1.615-0.917c-0.528-0.89-0.235-2.04,0.655-2.57
					l62.534-37.152c0.889-0.529,2.041-0.236,2.571,0.656c0.528,0.89,0.235,2.04-0.655,2.57l-62.534,37.152
					C111.527,78.744,111.197,78.828,110.871,78.828z"/>
			</g>
			<polygon style="fill:#1AAEBC;" points="172.529,38.174 161.825,44.562 162.281,39.993 172.529,32.223 			"/>
			<polygon style="fill:#1AAEBC;" points="174.548,41.3 163.469,47.894 167.319,49.45 179.431,44.39 			"/>
		</g>
	</g>
</g>
</svg>
